<?xml version="1.0" encoding="UTF-8" standalone="no"?>
<!-- Created with Inkscape (http://www.inkscape.org/) -->

<svg
   xmlns:dc="http://purl.org/dc/elements/1.1/"
   xmlns:cc="http://creativecommons.org/ns#"
   xmlns:rdf="http://www.w3.org/1999/02/22-rdf-syntax-ns#"
   xmlns:svg="http://www.w3.org/2000/svg"
   xmlns="http://www.w3.org/2000/svg"
   xmlns:sodipodi="http://sodipodi.sourceforge.net/DTD/sodipodi-0.dtd"
   xmlns:inkscape="http://www.inkscape.org/namespaces/inkscape"
   width="210mm"
   height="297mm"
   viewBox="0 0 210 297"
   version="1.1"
   id="svg8"
   inkscape:version="0.92.4 (5da689c313, 2019-01-14)"
   sodipodi:docname="All_2.5.svg">
  <defs
     id="defs2">
    <clipPath
       id="clipPath831"
       clipPathUnits="userSpaceOnUse">
      <path
         inkscape:connector-curvature="0"
         id="path829"
         d="m 2563,6661 h 4795 v 708 H 2563 v -708" />
    </clipPath>
    <clipPath
       id="clipPath831-4"
       clipPathUnits="userSpaceOnUse">
      <path
         inkscape:connector-curvature="0"
         id="path829-7"
         d="m 2563,6661 h 4795 v 708 H 2563 v -708" />
    </clipPath>
    <clipPath
       clipPathUnits="userSpaceOnUse"
       id="clipPath1412">
      <path
         d="M 2244,4039 H 7677 V 9992 H 2244 V 4039"
         id="path1410"
         inkscape:connector-curvature="0" />
    </clipPath>
    <clipPath
       clipPathUnits="userSpaceOnUse"
       id="clipPath845">
      <path
         d="M 2244,4039 H 7677 V 9992 H 2244 V 4039"
         id="path843"
         inkscape:connector-curvature="0" />
    </clipPath>
    <clipPath
       clipPathUnits="userSpaceOnUse"
       id="clipPath831-5">
      <path
         d="M 2244,4039 H 7677 V 9992 H 2244 V 4039"
         id="path829-3"
         inkscape:connector-curvature="0" />
    </clipPath>
    <clipPath
       clipPathUnits="userSpaceOnUse"
       id="clipPath844">
      <path
         d="M 2244,4039 H 7677 V 9992 H 2244 V 4039"
         id="path842"
         inkscape:connector-curvature="0" />
    </clipPath>
  </defs>
  <sodipodi:namedview
     id="base"
     pagecolor="#ffffff"
     bordercolor="#666666"
     borderopacity="1.0"
     inkscape:pageopacity="0.0"
     inkscape:pageshadow="2"
     inkscape:zoom="0.7"
     inkscape:cx="309.61674"
     inkscape:cy="583.48117"
     inkscape:document-units="mm"
     inkscape:current-layer="layer1"
     showgrid="false"
     inkscape:window-width="1920"
     inkscape:window-height="1017"
     inkscape:window-x="-8"
     inkscape:window-y="-8"
     inkscape:window-maximized="1" />
  <metadata
     id="metadata5">
    <rdf:RDF>
      <cc:Work
         rdf:about="">
        <dc:format>image/svg+xml</dc:format>
        <dc:type
           rdf:resource="http://purl.org/dc/dcmitype/StillImage" />
        <dc:title />
      </cc:Work>
    </rdf:RDF>
  </metadata>
  <g
     inkscape:label="レイヤー 1"
     inkscape:groupmode="layer"
     id="layer1">
    <path
       id="path855"
       style="fill:none;stroke:#ff0000;stroke-width:0.25400004;stroke-linecap:round;stroke-linejoin:round;stroke-miterlimit:10;stroke-dasharray:none;stroke-opacity:1"
       d="m 24.444932,124.43914 c -1.64885,-0.0106 -2.98979,1.33036 -2.98979,2.98979 v 8.99584 c 0,1.64884 1.34094,2.98979 2.98979,2.98979 h 95.482848 c 1.65943,0 3.00037,-1.34095 3.00037,-2.98979 v -8.99584 c 0,-1.65943 -1.34094,-3.00037 -3.00037,-2.98979 z"
       inkscape:connector-curvature="0"
       sodipodi:nodetypes="ccccccccc" />
    <path
       inkscape:connector-curvature="0"
       id="path859"
       style="fill:none;stroke:#ff0000;stroke-width:0.25400004;stroke-linecap:round;stroke-linejoin:round;stroke-miterlimit:10;stroke-dasharray:none;stroke-opacity:1"
       d="m 64.201229,133.40322 c 0.82414,0 1.49225,-0.6681 1.49225,-1.49225 0,-0.82414 -0.66811,-1.49225 -1.49225,-1.49225 -0.82415,0 -1.49225,0.66811 -1.49225,1.49225 0,0.82415 0.6681,1.49225 1.49225,1.49225" />
    <path
       inkscape:connector-curvature="0"
       id="path863"
       style="fill:none;stroke:#ff0000;stroke-width:0.25400004;stroke-linecap:round;stroke-linejoin:round;stroke-miterlimit:10;stroke-dasharray:none;stroke-opacity:1"
       d="m 29.212722,133.40322 c 0.82415,0 1.49225,-0.6681 1.49225,-1.49225 0,-0.82414 -0.6681,-1.49225 -1.49225,-1.49225 -0.82415,0 -1.49225,0.66811 -1.49225,1.49225 0,0.82415 0.6681,1.49225 1.49225,1.49225" />
    <path
       inkscape:connector-curvature="0"
       id="path867"
       style="fill:none;stroke:#ff0000;stroke-width:0.25400004;stroke-linecap:round;stroke-linejoin:round;stroke-miterlimit:10;stroke-dasharray:none;stroke-opacity:1"
       d="m 116.69457,133.40322 c 0.82415,0 1.49225,-0.6681 1.49225,-1.49225 0,-0.82414 -0.6681,-1.49225 -1.49225,-1.49225 -0.82415,0 -1.49225,0.66811 -1.49225,1.49225 0,0.82415 0.6681,1.49225 1.49225,1.49225" />
    <path
       id="path855-3"
       style="fill:none;stroke:#ff0000;stroke-width:0.25400004;stroke-linecap:round;stroke-linejoin:round;stroke-miterlimit:10;stroke-dasharray:none;stroke-opacity:1"
       d="m 151.71564,124.43914 c -1.64885,-0.0106 -2.98979,1.33037 -2.98979,2.9898 v 8.99583 c 0,1.64885 1.34094,2.98979 2.98979,2.98979 h 95.48285 c 1.65943,0 3.00037,-1.34094 3.00037,-2.98979 v -8.99583 c 0,-1.65943 -1.34094,-3.00038 -3.00037,-2.9898 z"
       inkscape:connector-curvature="0"
       sodipodi:nodetypes="ccccccccc" />
    <path
       inkscape:connector-curvature="0"
       id="path859-5"
       style="fill:none;stroke:#ff0000;stroke-width:0.25400004;stroke-linecap:round;stroke-linejoin:round;stroke-miterlimit:10;stroke-dasharray:none;stroke-opacity:1"
       d="m 191.47194,133.40323 c 0.82414,0 1.49225,-0.6681 1.49225,-1.49225 0,-0.82415 -0.66811,-1.49225 -1.49225,-1.49225 -0.82415,0 -1.49225,0.6681 -1.49225,1.49225 0,0.82415 0.6681,1.49225 1.49225,1.49225" />
    <path
       inkscape:connector-curvature="0"
       id="path863-3"
       style="fill:none;stroke:#ff0000;stroke-width:0.25400004;stroke-linecap:round;stroke-linejoin:round;stroke-miterlimit:10;stroke-dasharray:none;stroke-opacity:1"
       d="m 156.48343,133.40323 c 0.82415,0 1.49225,-0.6681 1.49225,-1.49225 0,-0.82415 -0.6681,-1.49225 -1.49225,-1.49225 -0.82415,0 -1.49225,0.6681 -1.49225,1.49225 0,0.82415 0.6681,1.49225 1.49225,1.49225" />
    <path
       inkscape:connector-curvature="0"
       id="path867-6"
       style="fill:none;stroke:#ff0000;stroke-width:0.25400004;stroke-linecap:round;stroke-linejoin:round;stroke-miterlimit:10;stroke-dasharray:none;stroke-opacity:1"
       d="m 243.96528,133.40323 c 0.82415,0 1.49225,-0.6681 1.49225,-1.49225 0,-0.82415 -0.6681,-1.49225 -1.49225,-1.49225 -0.82415,0 -1.49225,0.6681 -1.49225,1.49225 0,0.82415 0.6681,1.49225 1.49225,1.49225" />
    <path
       id="path870"
       style="fill:none;stroke:#fa0000;stroke-width:0.25400004;stroke-linecap:round;stroke-linejoin:round;stroke-miterlimit:10;stroke-dasharray:none;stroke-opacity:1"
       d="M 256.95616,103.04466 V 42.068774 h -2.286 v 1.037167 h -2.20134 v -1.037167 h -3.00567 v -3.005667 h 3.00567 v -1.058334 h 2.20134 v 1.058334 h 2.286 V 28.056439 h 5.50333 v -9.99596 c 0,-5.528831 -4.47771,-10.006544 -9.99596,-9.99596 H 146.46085 c -5.52883,-0.01058 -10.00655,4.467129 -9.99596,9.99596 l 0.0106,9.99596 h 5.48216 v 11.006668 h 2.30717 v -1.058334 h 2.20133 v 1.058334 h 3.00567 v 3.005667 h -3.00567 v 1.037167 h -2.20133 v -1.037167 h -2.30717 l 0,60.975886 c 0,9.97358 7.35848,18.42433 17.24668,19.80698 l 0.004,-2.29685 h 6.26534 v -5.29167 h -1.05834 v -2.20134 h 1.05834 v -3.00566 h 2.9845 v 3.00566 h 1.05833 v 2.20134 h -1.05833 v 5.29167 h 6.26533 v 2.49766 h 49.48768 v -2.49766 h 6.24416 v -5.29167 h -1.03716 v -2.20134 h 1.03716 v -3.00566 h 3.00567 v 3.00566 h 1.05834 v 2.20134 h -1.05834 v 5.29167 h 6.26534 l -0.006,2.29685 c 9.87763,-1.38265 17.2361,-9.8334 17.2361,-19.80698 z"
       inkscape:connector-curvature="0"
       sodipodi:nodetypes="ccccccccccccccccccccccccccccccccccccccccccccccccccccccccccccccccccc" />
    <path
       id="path894"
       style="fill:none;stroke:#fa0000;stroke-width:0.25400004;stroke-linecap:round;stroke-linejoin:round;stroke-miterlimit:10;stroke-dasharray:none;stroke-opacity:1"
       d="m 221.95708,94.556821 c -0.0106,5.518249 -4.48831,9.995959 -10.00656,9.995959 h -24.99784 c -5.52883,0 -10.00654,-4.47771 -9.99596,-9.995959 l 0.0106,-23.495 c 0,-2.208863 1.78635,-3.995209 3.99521,-3.995209 h 36.99934 c 2.19828,0 3.98462,1.786346 3.99523,3.995209 z"
       inkscape:connector-curvature="0"
       sodipodi:nodetypes="ccccccccc" />
    <path
       d="m 180.96781,67.066611 v 0"
       style="fill:none;stroke:#fa0000;stroke-width:0.25400004;stroke-linecap:round;stroke-linejoin:round;stroke-miterlimit:10;stroke-dasharray:none;stroke-opacity:1"
       id="path896"
       inkscape:connector-curvature="0" />
    <path
       inkscape:connector-curvature="0"
       id="path900"
       style="fill:none;stroke:#fa0000;stroke-width:0.25400004;stroke-linecap:round;stroke-linejoin:round;stroke-miterlimit:10;stroke-dasharray:none;stroke-opacity:1"
       d="m 231.85248,15.04952 c 0,-0.777387 -0.63019,-1.407584 -1.40758,-1.407584 -0.77739,0 -1.40758,0.630197 -1.40758,1.407584 0,0.777387 0.63019,1.407584 1.40758,1.407584 0.77739,0 1.40758,-0.630197 1.40758,-1.407584" />
    <path
       inkscape:connector-curvature="0"
       id="path904"
       style="fill:none;stroke:#fa0000;stroke-width:0.25400004;stroke-linecap:round;stroke-linejoin:round;stroke-miterlimit:10;stroke-dasharray:none;stroke-opacity:1"
       d="m 175.86664,72.051362 c 0,-0.777387 -0.63019,-1.407584 -1.40758,-1.407584 -0.77739,0 -1.40759,0.630197 -1.40759,1.407584 0,0.777387 0.6302,1.407584 1.40759,1.407584 0.77739,0 1.40758,-0.630197 1.40758,-1.407584" />
    <path
       inkscape:connector-curvature="0"
       id="path908"
       style="fill:none;stroke:#fa0000;stroke-width:0.25400004;stroke-linecap:round;stroke-linejoin:round;stroke-miterlimit:10;stroke-dasharray:none;stroke-opacity:1"
       d="m 147.86314,109.53753 c 0,-0.77739 -0.6302,-1.40758 -1.40759,-1.40758 -0.77738,0 -1.40758,0.63019 -1.40758,1.40758 0,0.77739 0.6302,1.40758 1.40758,1.40758 0.77739,0 1.40759,-0.63019 1.40759,-1.40758" />
    <path
       inkscape:connector-curvature="0"
       id="path912"
       style="fill:none;stroke:#fa0000;stroke-width:0.25400004;stroke-linecap:round;stroke-linejoin:round;stroke-miterlimit:10;stroke-dasharray:none;stroke-opacity:1"
       d="m 147.86314,92.053861 c 0,-0.77739 -0.6302,-1.40758 -1.40759,-1.40758 -0.77738,0 -1.40758,0.63019 -1.40758,1.40758 0,0.77739 0.6302,1.40758 1.40758,1.40758 0.77739,0 1.40759,-0.63019 1.40759,-1.40758" />
    <path
       inkscape:connector-curvature="0"
       id="path916"
       style="fill:none;stroke:#fa0000;stroke-width:0.25400004;stroke-linecap:round;stroke-linejoin:round;stroke-miterlimit:10;stroke-dasharray:none;stroke-opacity:1"
       d="m 173.36898,92.053861 c 0,-0.77739 -0.6302,-1.40758 -1.40759,-1.40758 -0.77738,0 -1.40758,0.63019 -1.40758,1.40758 0,0.77739 0.6302,1.40758 1.40758,1.40758 0.77739,0 1.40759,-0.63019 1.40759,-1.40758" />
    <path
       inkscape:connector-curvature="0"
       id="path920"
       style="fill:none;stroke:#fa0000;stroke-width:0.25400004;stroke-linecap:round;stroke-linejoin:round;stroke-miterlimit:10;stroke-dasharray:none;stroke-opacity:1"
       d="m 173.36898,109.53753 c 0,-0.77739 -0.6302,-1.40758 -1.40759,-1.40758 -0.77738,0 -1.40758,0.63019 -1.40758,1.40758 0,0.77739 0.6302,1.40758 1.40758,1.40758 0.77739,0 1.40759,-0.63019 1.40759,-1.40758" />
    <path
       inkscape:connector-curvature="0"
       id="path924"
       style="fill:none;stroke:#fa0000;stroke-width:0.25400004;stroke-linecap:round;stroke-linejoin:round;stroke-miterlimit:10;stroke-dasharray:none;stroke-opacity:1"
       d="m 169.85531,15.04952 c 0,-0.777387 -0.6302,-1.407584 -1.40759,-1.407584 -0.77738,0 -1.40758,0.630197 -1.40758,1.407584 0,0.777387 0.6302,1.407584 1.40758,1.407584 0.77739,0 1.40759,-0.630197 1.40759,-1.407584" />
    <path
       inkscape:connector-curvature="0"
       id="path928"
       style="fill:none;stroke:#fa0000;stroke-width:0.25400004;stroke-linecap:round;stroke-linejoin:round;stroke-miterlimit:10;stroke-dasharray:none;stroke-opacity:1"
       d="m 225.86231,72.051362 c 0,-0.777387 -0.63019,-1.407584 -1.40758,-1.407584 -0.77739,0 -1.40758,0.630197 -1.40758,1.407584 0,0.777387 0.63019,1.407584 1.40758,1.407584 0.77739,0 1.40758,-0.630197 1.40758,-1.407584" />
    <path
       inkscape:connector-curvature="0"
       id="path837"
       style="fill:none;stroke:#ff0000;stroke-width:0.25400001;stroke-linecap:round;stroke-linejoin:round;stroke-miterlimit:10;stroke-dasharray:none;stroke-opacity:1"
       d="M 129.38465,103.04465 V 42.068779 h -2.286 v 1.03716 h -2.20133 v -1.03716 h -3.00567 v -3.00567 h 3.00567 v -1.05833 h 2.20133 v 1.05833 h 2.286 v -11.00667 h 5.50333 v -9.99595 c 0,-5.52883 -4.47771,-10.00655 -9.99596,-9.99596 H 18.889369 c -5.52883,-0.0106 -10.0065391,4.46713 -9.9959591,9.99596 l 0.0106,9.99595 h 5.4821591 v 11.00667 h 2.30717 v -1.05833 h 2.20133 v 1.05833 h 3.00567 v 3.00567 h -3.00567 v 1.03716 h -2.20133 v -1.03716 h -2.30717 v 60.975871 c 0,9.97358 7.35848,18.42432 17.24668,19.80698 l 0.004,-2.29685 h 6.26533 v -5.29167 h -1.05833 v -2.20133 h 1.05833 v -3.00567 h 2.9845 v 3.00567 h 1.05834 v 2.20133 h -1.05834 v 5.29167 h 6.26534 v 2.49767 h 7.239 v -20.00251 h 35.00966 v 20.00251 h 7.239 v -2.49767 h 6.244161 v -5.29167 h -1.03717 v -2.20133 h 1.03717 v -3.00567 h 3.00567 v 3.00567 h 1.05833 v 2.20133 h -1.05833 v 5.29167 h 6.26533 l -0.006,2.29685 c 9.87763,-1.38266 17.2361,-9.8334 17.2361,-19.80698 z"
       sodipodi:nodetypes="ccccccccccccccccccccccccccccccccccccccccccccccccccccccccccccccccccccccc" />
    <path
       inkscape:connector-curvature="0"
       id="path863-1"
       style="fill:none;stroke:#ff0000;stroke-width:0.25400001;stroke-linecap:round;stroke-linejoin:round;stroke-miterlimit:10;stroke-dasharray:none;stroke-opacity:1"
       d="m 120.6487,99.217589 c 0.538,-1.31775 1.81985,-2.17898 3.2432,-2.17898 1.42335,0 2.70519,0.86123 3.24319,2.17898 0.53801,1.317751 0.22519,2.830031 -0.79494,3.829281 l -0.003,0.003 -4.89301,-0.003 c -1.02013,-0.99925 -1.33294,-2.51153 -0.79494,-3.829281 z"
       sodipodi:nodetypes="ssscccs" />
    <path
       d="m 22.344829,103.04994 -0.007,-0.003 c 1.00955,-0.99925 1.32236,-2.51153 0.78436,-3.829281 -0.538,-1.31775 -1.81985,-2.17897 -3.2432,-2.17897 -1.42334,0 -2.70519,0.86122 -3.24319,2.17897 -0.538,1.317751 -0.22519,2.830031 0.80552,3.829281 z"
       style="fill:none;stroke:#ff0000;stroke-width:0.25400001;stroke-linecap:round;stroke-linejoin:round;stroke-miterlimit:10;stroke-dasharray:none;stroke-opacity:1"
       id="path867-3"
       inkscape:connector-curvature="0"
       sodipodi:nodetypes="ccssscc" />
    <path
       inkscape:connector-curvature="0"
       id="path877"
       style="fill:none;stroke:#ff0000;stroke-width:0.25400001;stroke-linecap:round;stroke-linejoin:round;stroke-miterlimit:10;stroke-dasharray:none;stroke-opacity:1"
       d="m 53.142329,120.0362 c 0,-0.69556 -0.56386,-1.25942 -1.25942,-1.25942 -0.69555,0 -1.25941,0.56386 -1.25941,1.25942 0,0.69555 0.56386,1.25941 1.25941,1.25941 0.69556,0 1.25942,-0.56386 1.25942,-1.25941" />
    <path
       inkscape:connector-curvature="0"
       id="path881"
       style="fill:none;stroke:#ff0000;stroke-width:0.25400001;stroke-linecap:round;stroke-linejoin:round;stroke-miterlimit:10;stroke-dasharray:none;stroke-opacity:1"
       d="m 93.147329,120.0362 c 0,-0.69556 -0.56386,-1.25942 -1.25942,-1.25942 -0.69555,0 -1.25941,0.56386 -1.25941,1.25942 0,0.69555 0.56386,1.25941 1.25941,1.25941 0.69556,0 1.25942,-0.56386 1.25942,-1.25941" />
    <path
       inkscape:connector-curvature="0"
       id="path885"
       style="fill:none;stroke:#ff0000;stroke-width:0.25400001;stroke-linecap:round;stroke-linejoin:round;stroke-miterlimit:10;stroke-dasharray:none;stroke-opacity:1"
       d="m 93.147329,106.02386 c 0,-0.69555 -0.56386,-1.25942 -1.25942,-1.25942 -0.69555,0 -1.25941,0.56387 -1.25941,1.25942 0,0.69556 0.56386,1.25942 1.25941,1.25942 0.69556,0 1.25942,-0.56386 1.25942,-1.25942" />
    <path
       inkscape:connector-curvature="0"
       id="path889"
       style="fill:none;stroke:#ff0000;stroke-width:0.25400001;stroke-linecap:round;stroke-linejoin:round;stroke-miterlimit:10;stroke-dasharray:none;stroke-opacity:1"
       d="m 53.142329,106.02386 c 0,-0.69555 -0.56386,-1.25942 -1.25942,-1.25942 -0.69555,0 -1.25941,0.56387 -1.25941,1.25942 0,0.69556 0.56386,1.25942 1.25941,1.25942 0.69556,0 1.25942,-0.56386 1.25942,-1.25942" />
    <path
       inkscape:connector-curvature="0"
       id="path893"
       style="fill:none;stroke:#ff0000;stroke-width:0.25400001;stroke-linecap:round;stroke-linejoin:round;stroke-miterlimit:10;stroke-dasharray:none;stroke-opacity:1"
       d="m 110.37698,100.54169 c 0,-0.824141 -0.6681,-1.492251 -1.49225,-1.492251 -0.82414,0 -1.49224,0.66811 -1.49224,1.492251 0,0.82415 0.6681,1.49225 1.49224,1.49225 0.82415,0 1.49225,-0.6681 1.49225,-1.49225" />
    <path
       inkscape:connector-curvature="0"
       id="path897"
       style="fill:none;stroke:#ff0000;stroke-width:0.25400001;stroke-linecap:round;stroke-linejoin:round;stroke-miterlimit:10;stroke-dasharray:none;stroke-opacity:1"
       d="m 36.378329,100.54169 c 0,-0.824141 -0.6681,-1.492251 -1.49225,-1.492251 -0.82415,0 -1.49225,0.66811 -1.49225,1.492251 0,0.82415 0.6681,1.49225 1.49225,1.49225 0.82415,0 1.49225,-0.6681 1.49225,-1.49225" />
    <path
       inkscape:connector-curvature="0"
       id="path901"
       style="fill:none;stroke:#ff0000;stroke-width:0.25400001;stroke-linecap:round;stroke-linejoin:round;stroke-miterlimit:10;stroke-dasharray:none;stroke-opacity:1"
       d="m 123.28865,85.555689 c 0,-0.77738 -0.6302,-1.40758 -1.40758,-1.40758 -0.77739,0 -1.40759,0.6302 -1.40759,1.40758 0,0.77739 0.6302,1.40759 1.40759,1.40759 0.77738,0 1.40758,-0.6302 1.40758,-1.40759" />
    <path
       inkscape:connector-curvature="0"
       id="path905"
       style="fill:none;stroke:#ff0000;stroke-width:0.25400001;stroke-linecap:round;stroke-linejoin:round;stroke-miterlimit:10;stroke-dasharray:none;stroke-opacity:1"
       d="m 123.28865,27.559029 c 0,-0.77739 -0.6302,-1.40759 -1.40758,-1.40759 -0.77739,0 -1.40759,0.6302 -1.40759,1.40759 0,0.77738 0.6302,1.40758 1.40759,1.40758 0.77738,0 1.40758,-0.6302 1.40758,-1.40758" />
    <path
       inkscape:connector-curvature="0"
       id="path909"
       style="fill:none;stroke:#ff0000;stroke-width:0.25400001;stroke-linecap:round;stroke-linejoin:round;stroke-miterlimit:10;stroke-dasharray:none;stroke-opacity:1"
       d="m 37.288499,27.559029 c 0,-0.77739 -0.6302,-1.40759 -1.40759,-1.40759 -0.77738,0 -1.40758,0.6302 -1.40758,1.40759 0,0.77738 0.6302,1.40758 1.40758,1.40758 0.77739,0 1.40759,-0.6302 1.40759,-1.40758" />
    <path
       inkscape:connector-curvature="0"
       id="path913"
       style="fill:none;stroke:#ff0000;stroke-width:0.25400001;stroke-linecap:round;stroke-linejoin:round;stroke-miterlimit:10;stroke-dasharray:none;stroke-opacity:1"
       d="m 37.288499,85.555689 c 0,-0.77738 -0.6302,-1.40758 -1.40759,-1.40758 -0.77738,0 -1.40758,0.6302 -1.40758,1.40758 0,0.77739 0.6302,1.40759 1.40758,1.40759 0.77739,0 1.40759,-0.6302 1.40759,-1.40759" />
  </g>
</svg>
