<?xml version="1.0" encoding="UTF-8" standalone="no"?>
<!-- Created with Inkscape (http://www.inkscape.org/) -->

<svg
   xmlns:dc="http://purl.org/dc/elements/1.1/"
   xmlns:cc="http://creativecommons.org/ns#"
   xmlns:rdf="http://www.w3.org/1999/02/22-rdf-syntax-ns#"
   xmlns:svg="http://www.w3.org/2000/svg"
   xmlns="http://www.w3.org/2000/svg"
   xmlns:sodipodi="http://sodipodi.sourceforge.net/DTD/sodipodi-0.dtd"
   xmlns:inkscape="http://www.inkscape.org/namespaces/inkscape"
   width="210mm"
   height="297mm"
   viewBox="0 0 210 297"
   version="1.1"
   id="svg8"
   inkscape:version="0.92.4 (5da689c313, 2019-01-14)"
   sodipodi:docname="Front-Model.svg">
  <defs
     id="defs2">
    <clipPath
       id="clipPath831"
       clipPathUnits="userSpaceOnUse">
      <path
         inkscape:connector-curvature="0"
         id="path829"
         d="m 2563,6661 h 4795 v 708 H 2563 v -708" />
    </clipPath>
    <clipPath
       id="clipPath831-4"
       clipPathUnits="userSpaceOnUse">
      <path
         inkscape:connector-curvature="0"
         id="path829-7"
         d="m 2563,6661 h 4795 v 708 H 2563 v -708" />
    </clipPath>
  </defs>
  <sodipodi:namedview
     id="base"
     pagecolor="#ffffff"
     bordercolor="#666666"
     borderopacity="1.0"
     inkscape:pageopacity="0.0"
     inkscape:pageshadow="2"
     inkscape:zoom="1.4"
     inkscape:cx="156.56669"
     inkscape:cy="855.64607"
     inkscape:document-units="mm"
     inkscape:current-layer="layer1"
     showgrid="false"
     inkscape:window-width="1920"
     inkscape:window-height="1017"
     inkscape:window-x="-8"
     inkscape:window-y="-8"
     inkscape:window-maximized="1" />
  <metadata
     id="metadata5">
    <rdf:RDF>
      <cc:Work
         rdf:about="">
        <dc:format>image/svg+xml</dc:format>
        <dc:type
           rdf:resource="http://purl.org/dc/dcmitype/StillImage" />
        <dc:title />
      </cc:Work>
    </rdf:RDF>
  </metadata>
  <g
     inkscape:label="レイヤー 1"
     inkscape:groupmode="layer"
     id="layer1">
    <path
       id="path855"
       style="fill:none;stroke:#ff0000;stroke-width:0.25400004;stroke-linecap:round;stroke-linejoin:round;stroke-miterlimit:10;stroke-dasharray:none;stroke-opacity:1"
       d="m 50.127062,111.27242 c -0.01058,1.64885 1.330362,2.98979 2.989793,2.98979 h 8.995834 c 1.648847,0 2.989792,-1.34094 2.989792,-2.98979 V 15.789578 c 0,-1.659431 -1.340945,-3.000376 -2.989792,-3.000376 h -8.995834 c -1.659431,0 -3.000376,1.340945 -2.989793,3.000376 z"
       inkscape:connector-curvature="0"
       sodipodi:nodetypes="ccccccccc" />
    <path
       inkscape:connector-curvature="0"
       id="path859"
       style="fill:none;stroke:#ff0000;stroke-width:0.25400004;stroke-linecap:round;stroke-linejoin:round;stroke-miterlimit:10;stroke-dasharray:none;stroke-opacity:1"
       d="m 59.091147,71.516128 c 0,-0.824147 -0.668103,-1.49225 -1.49225,-1.49225 -0.824147,0 -1.49225,0.668103 -1.49225,1.49225 0,0.824147 0.668103,1.49225 1.49225,1.49225 0.824147,0 1.49225,-0.668103 1.49225,-1.49225" />
    <path
       inkscape:connector-curvature="0"
       id="path863"
       style="fill:none;stroke:#ff0000;stroke-width:0.25400004;stroke-linecap:round;stroke-linejoin:round;stroke-miterlimit:10;stroke-dasharray:none;stroke-opacity:1"
       d="m 59.091147,106.50463 c 0,-0.82415 -0.668103,-1.49225 -1.49225,-1.49225 -0.824147,0 -1.49225,0.6681 -1.49225,1.49225 0,0.82415 0.668103,1.49225 1.49225,1.49225 0.824147,0 1.49225,-0.6681 1.49225,-1.49225" />
    <path
       inkscape:connector-curvature="0"
       id="path867"
       style="fill:none;stroke:#ff0000;stroke-width:0.25400004;stroke-linecap:round;stroke-linejoin:round;stroke-miterlimit:10;stroke-dasharray:none;stroke-opacity:1"
       d="m 59.091147,19.022786 c 0,-0.824147 -0.668103,-1.49225 -1.49225,-1.49225 -0.824147,0 -1.49225,0.668103 -1.49225,1.49225 0,0.824147 0.668103,1.49225 1.49225,1.49225 0.824147,0 1.49225,-0.668103 1.49225,-1.49225" />
    <path
       id="path855-3"
       style="fill:none;stroke:#ff0000;stroke-width:0.25400004;stroke-linecap:round;stroke-linejoin:round;stroke-miterlimit:10;stroke-dasharray:none;stroke-opacity:1"
       d="m 67.127062,111.27242 c -0.0106,1.64885 1.33037,2.98979 2.9898,2.98979 h 8.99583 c 1.64885,0 2.98979,-1.34094 2.98979,-2.98979 V 15.789578 c 0,-1.659431 -1.34094,-3.000376 -2.98979,-3.000376 h -8.99583 c -1.65943,0 -3.00038,1.340945 -2.9898,3.000376 z"
       inkscape:connector-curvature="0"
       sodipodi:nodetypes="ccccccccc" />
    <path
       inkscape:connector-curvature="0"
       id="path859-5"
       style="fill:none;stroke:#ff0000;stroke-width:0.25400004;stroke-linecap:round;stroke-linejoin:round;stroke-miterlimit:10;stroke-dasharray:none;stroke-opacity:1"
       d="m 76.091152,71.516128 c 0,-0.824148 -0.6681,-1.49225 -1.49225,-1.49225 -0.82415,0 -1.49225,0.668102 -1.49225,1.49225 0,0.824146 0.6681,1.49225 1.49225,1.49225 0.82415,0 1.49225,-0.668104 1.49225,-1.49225" />
    <path
       inkscape:connector-curvature="0"
       id="path863-3"
       style="fill:none;stroke:#ff0000;stroke-width:0.25400004;stroke-linecap:round;stroke-linejoin:round;stroke-miterlimit:10;stroke-dasharray:none;stroke-opacity:1"
       d="m 76.091152,106.50463 c 0,-0.82415 -0.6681,-1.49225 -1.49225,-1.49225 -0.82415,0 -1.49225,0.6681 -1.49225,1.49225 0,0.82415 0.6681,1.49225 1.49225,1.49225 0.82415,0 1.49225,-0.6681 1.49225,-1.49225" />
    <path
       inkscape:connector-curvature="0"
       id="path867-6"
       style="fill:none;stroke:#ff0000;stroke-width:0.25400004;stroke-linecap:round;stroke-linejoin:round;stroke-miterlimit:10;stroke-dasharray:none;stroke-opacity:1"
       d="m 76.091152,19.022786 c 0,-0.824147 -0.6681,-1.49225 -1.49225,-1.49225 -0.82415,0 -1.49225,0.668103 -1.49225,1.49225 0,0.824147 0.6681,1.49225 1.49225,1.49225 0.82415,0 1.49225,-0.668103 1.49225,-1.49225" />
  </g>
</svg>
